<svg xmlns="http://www.w3.org/2000/svg" viewBox="0 0 280 360" fill="none" aria-hidden="true">
  <g opacity="0.35" stroke="#5eead4" stroke-width="1.2" stroke-linecap="round">
    <path d="M40 320 C40 220 90 180 140 200 C190 220 240 260 240 320" />
    <path d="M55 320 C55 240 95 210 140 225 C185 240 225 270 225 320" />
    <path d="M70 320 C70 255 100 235 140 248 C180 261 210 285 210 320" />
    <path d="M85 320 C85 270 108 255 140 265 C172 275 195 295 195 320" />
    <path d="M100 320 C100 285 115 275 140 282 C165 289 180 305 180 320" />
  </g>
  <g stroke="#a7f3d0" stroke-width="1.4" stroke-linecap="round">
    <path d="M30 300 C30 160 80 80 140 70 C200 60 250 140 250 300" />
    <path d="M45 300 C45 175 88 105 140 98 C192 91 235 155 235 300" />
    <path d="M60 300 C60 190 96 130 140 125 C184 120 220 175 220 300" />
    <path d="M75 300 C75 205 104 155 140 152 C176 149 205 195 205 300" />
    <path d="M90 300 C90 220 112 180 140 178 C168 176 190 215 190 300" />
    <path d="M105 300 C105 235 120 205 140 204 C160 203 175 235 175 300" />
    <path d="M120 300 C120 250 128 228 140 227 C152 226 160 248 160 300" />
  </g>
  <g stroke="#34d399" stroke-width="1.6" stroke-linecap="round" opacity="0.9">
    <path d="M20 280 C20 120 75 40 140 35 C205 30 260 110 260 280" />
    <path d="M38 280 C38 145 82 75 140 68 C198 61 242 135 242 280" />
    <path d="M56 280 C56 168 89 108 140 102 C191 96 224 158 224 280" />
    <path d="M74 280 C74 192 96 142 140 137 C184 132 206 182 206 280" />
    <path d="M92 280 C92 215 103 175 140 172 C177 169 188 208 188 280" />
    <path d="M110 280 C110 238 115 208 140 206 C165 204 170 234 170 280" />
    <path d="M128 280 C128 258 130 242 140 241 C150 240 152 256 152 280" />
  </g>
  <ellipse cx="140" cy="200" rx="52" ry="68" stroke="#6ee7b7" stroke-width="1" opacity="0.25" />
  <path d="M118 248 C130 210 150 210 162 248" stroke="#ecfdf5" stroke-width="2" stroke-linecap="round" opacity="0.5" />
</svg>
